<?xml version="1.0" encoding="UTF-8" standalone="no"?>
<!-- Created with Inkscape (http://www.inkscape.org/) -->

<svg
   xmlns:dc="http://purl.org/dc/elements/1.1/"
   xmlns:cc="http://creativecommons.org/ns#"
   xmlns:rdf="http://www.w3.org/1999/02/22-rdf-syntax-ns#"
   xmlns:svg="http://www.w3.org/2000/svg"
   xmlns="http://www.w3.org/2000/svg"
   xmlns:sodipodi="http://sodipodi.sourceforge.net/DTD/sodipodi-0.dtd"
   xmlns:inkscape="http://www.inkscape.org/namespaces/inkscape"
   width="20.200001mm"
   height="9.8000002mm"
   viewBox="0 0 71.574806 34.724409"
   id="svg6324"
   version="1.1"
   inkscape:version="0.91 r13725"
   sodipodi:docname="941-2H-5C.svg">
  <defs
     id="defs6326" />
  <sodipodi:namedview
     id="base"
     pagecolor="#ffffff"
     bordercolor="#666666"
     borderopacity="1.0"
     inkscape:pageopacity="0.0"
     inkscape:pageshadow="2"
     inkscape:zoom="20.529122"
     inkscape:cx="29.84445"
     inkscape:cy="23.111096"
     inkscape:document-units="px"
     inkscape:current-layer="layer2"
     showgrid="false"
     showguides="false"
     inkscape:window-width="2560"
     inkscape:window-height="1363"
     inkscape:window-x="-9"
     inkscape:window-y="-9"
     inkscape:window-maximized="1" />
  <metadata
     id="metadata6329">
    <rdf:RDF>
      <cc:Work
         rdf:about="">
        <dc:format>image/svg+xml</dc:format>
        <dc:type
           rdf:resource="http://purl.org/dc/dcmitype/StillImage" />
        <dc:title />
      </cc:Work>
    </rdf:RDF>
  </metadata>
  <g
     inkscape:groupmode="layer"
     id="layer2"
     inkscape:label="Layer 2"
     style="display:inline">
    <g
       transform="matrix(1,0,0,1.0014519,0,-1019.1641)"
       id="g7277">
      <g
         id="g7273">
        <path
           style="fill:#1a1a1a"
           inkscape:connector-curvature="0"
           d="m 71.703726,1048.7746 c 0,1.3848 -0.882168,2.5132 -1.960372,2.5132 l -67.7818331,0 c -1.07820474,0 -1.96037227,-1.1284 -1.96037227,-2.5132 l 0,-28.5242 c 0,-1.3898 0.88216753,-2.5132 1.96037227,-2.5132 l 67.7818331,0 c 1.078204,0 1.960372,1.1234 1.960372,2.5132 l 0,28.5242 z"
           id="path6967" />
        <path
           id="path6973"
           d="m 68.72567,1017.9687 -61.224851,0 0,4.1897 c 0,0.5846 -0.7867701,1.0646 -1.7492255,1.0646 l -5.67544482,0 0,19.8177 c 0,0.4033 0.540428,0.731 1.19734052,0.731 l 67.4521808,0 c 0.658825,0 1.197345,-0.3277 1.197345,-0.731 l 0,-24.3434 c 0,-0.3997 -0.53852,-0.7286 -1.197345,-0.7286 z"
           inkscape:connector-curvature="0"
           style="fill:#333333" />
      </g>
      <text
         id="text6975"
         font-size="2.531"
         style="font-size:2.53100014px;font-family:DroidSans;fill:#808080"
         x="8.421854"
         y="1025.5313">OMRON</text>
      <text
         id="text6977"
         font-size="2.531"
         style="font-size:2.53100014px;font-family:DroidSans;fill:#808080"
         x="8.421854"
         y="1028.0313">G5V-2-H</text>
      <g
         id="g6979"
         transform="translate(3.9885131,1019.5736)">
        <text
           style="font-size:2.5309999px;font-family:DroidSans;fill:#808080"
           transform="translate(4.1851,17.8525)"
           font-size="2.531"
           id="text6981">5VDC</text>
        <text
           style="font-size:2.5309999px;font-family:DroidSans;fill:#808080"
           transform="translate(4.1851,20.3525)"
           font-size="2.531"
           id="text6983">MADE IN CHINA</text>
      </g>
      <path
         style="fill:#b3b3b3"
         inkscape:connector-curvature="0"
         d="m 6.0516049,1038.4172 c 0,0.504 -0.412,0.916 -0.916001,0.916 l -0.002,0 c -0.502999,0 -0.916001,-0.412 -0.916001,-0.916 l 0,-12.084 c 0,-0.503 0.412,-0.916 0.916001,-0.916 l 0.002,0 c 0.502999,0 0.916001,0.412 0.916001,0.916 l 0,12.084 z"
         id="path6985" />
    </g>
    <path
       transform="translate(0,-1017.6378)"
       id="path6991"
       d="m -0.00369275,1048.0744 c 0,1.4175 0.88124481,2.5727 1.95832175,2.5727 l 67.710934,0 c 1.077077,0 1.958322,-1.1552 1.958322,-2.5727 l 0,0.8233 c 0,1.4175 -0.881245,2.5726 -1.958322,2.5726 l -67.710934,0 c -1.07707694,0 -1.95832175,-1.1551 -1.95832175,-2.5726 l 0,-0.8233 z"
       inkscape:connector-curvature="0"
       style="fill-opacity:0.7" />
    <path
       id="path6971"
       d="m 71.00631,27.288494 c 0,0.04436 -0.489554,0.08051 -1.087898,0.08051 l -37.615151,0 c -0.598343,0 -1.087897,-0.03615 -1.087897,-0.08051 l 0,-0.913743 c 0,-0.04484 0.489554,-0.08051 1.087897,-0.08051 l 37.615151,0 c 0.598344,0 1.087898,0.03566 1.087898,0.08051 l 0,0.913743 z"
       inkscape:connector-curvature="0"
       style="display:inline;fill:#1a1a1a" />
  </g>
  <g
     inkscape:label="Layer 1"
     inkscape:groupmode="layer"
     id="layer1"
     transform="translate(0,-1017.6378)"
     style="display:inline">
    <path
       style="fill:#ffffff;fill-opacity:0.1"
       inkscape:connector-curvature="0"
       d="m 7.6816203,1017.7335 62.7157697,0 c 0.674867,0 1.226499,0.2274 1.226499,0.5037 l 0,-0.2514 c 0,-0.2764 -0.551632,-0.5037 -1.226499,-0.5037 l -62.7157697,0 0,0.2514 z"
       id="path6694" />
    <path
       style="fill:#ffffff;fill-opacity:0.1"
       inkscape:connector-curvature="0"
       d="m 0.07615225,1023.3655 5.81364485,0 c 0.985894,0 1.7918232,-0.3318 1.7918232,-0.7359 l 0,-0.2514 c 0,0.404 -0.8059292,0.7358 -1.7918232,0.7358 l -5.81364485,0 0,0.2515 z"
       id="path6696" />
    <rect
       id="rect6945"
       height="1.186"
       width="1.275"
       y="1058.2549"
       x="131.05203"
       style="fill:#cccccc" />
    <rect
       id="rect6949"
       height="1.186"
       width="1.275"
       y="1058.2549"
       x="109.45203"
       style="fill:#cccccc" />
    <rect
       id="rect6951"
       height="0.47799999"
       width="1.275"
       y="1037.8739"
       x="131.05203"
       style="fill:#cccccc" />
    <rect
       id="rect6953"
       height="0.479"
       width="1.276"
       y="1037.8739"
       x="102.25403"
       style="fill:#cccccc" />
    <rect
       id="rect6955"
       height="0.47799999"
       width="1.275"
       y="1037.8739"
       x="109.45203"
       style="fill:#cccccc" />
    <rect
       height="1.1849999"
       width="1.276"
       y="1058.2549"
       x="102.25403"
       id="connector0pin"
       style="fill:none" />
    <rect
       height="1.186"
       width="1.275"
       y="1058.2549"
       x="109.45203"
       id="connector1pin"
       style="fill:none" />
    <rect
       height="1.186"
       width="1.275"
       y="1058.2549"
       x="131.05203"
       id="connector2pin"
       style="fill:none" />
    <rect
       height="0.47799999"
       width="1.275"
       y="1037.8739"
       x="131.05203"
       id="connector3pin"
       style="fill:none" />
    <rect
       height="0.47799999"
       width="1.275"
       y="1037.8739"
       x="109.45203"
       id="connector4pin"
       style="fill:none" />
    <rect
       height="0.479"
       width="1.276"
       y="1037.8739"
       x="102.25403"
       id="connector5pin"
       style="fill:none" />
    <path
       style="fill:#ffffff;fill-opacity:0.1"
       inkscape:connector-curvature="0"
       d="m 69.743354,1018.5113 -67.7818331,0 c -1.07820474,0 -1.96037227,1.1233 -1.96037227,2.5131 l 0,-0.774 c 0,-1.3898 0.88216753,-2.5132 1.96037227,-2.5132 l 67.7818331,0 0,0.7741 z"
       id="path6969" />
    <path
       id="path6987"
       d="m 105.76543,1035.7756 32.061,0 c 0.345,0 0.627,0.283 0.627,0.627 l 0,-0.313 c 0,-0.344 -0.282,-0.627 -0.627,-0.627 l -32.061,0 0,0.313 z"
       inkscape:connector-curvature="0"
       style="fill:#ffffff;fill-opacity:0.1" />
    <path
       id="path6989"
       d="m 101.87743,1040.2966 2.972,0 c 0.504,0 0.916,-0.413 0.916,-0.916 l 0,-0.313 c 0,0.503 -0.412,0.916 -0.916,0.916 l -2.972,0 0,0.313 z"
       inkscape:connector-curvature="0"
       style="fill:#ffffff;fill-opacity:0.1" />
    <path
       id="path6993"
       d="m 138.37359,1083.5432 c 0,0.348 -0.282,0.629 -0.62701,0.629 l -35.322,0 c -0.34399,0 -0.62699,-0.281 -0.62699,-0.629 l 0,0.32 c 0,0.347 0.283,0.629 0.62699,0.629 l 35.322,0 c 0.34501,0 0.62701,-0.282 0.62701,-0.629 l 0,-0.32 z"
       inkscape:connector-curvature="0"
       style="fill-opacity:0.1" />
    <path
       style="fill:#154000;fill-opacity:0"
       d="m 4.2182365,34.288419 0,-0.414046 0.5114686,0 0.5114685,0 0,0.414046 0,0.414046 -0.5114685,0 -0.5114686,0 0,-0.414046 z"
       id="path3371"
       inkscape:connector-curvature="0"
       transform="translate(0,1017.6378)" />
    <path
       style="fill:#154000;fill-opacity:0"
       d="m 4.2036232,34.288419 0,-0.414046 0.5114685,0 0.5114685,0 0,0.414046 0,0.414046 -0.5114685,0 -0.5114685,0 0,-0.414046 z"
       id="path4173"
       inkscape:connector-curvature="0"
       transform="translate(0,1017.6378)" />
    <path
       style="fill:#154000;fill-opacity:0"
       d="m 4.2036232,34.288419 0,-0.414046 0.5114685,0 0.5114685,0 0,0.414046 0,0.414046 -0.5114685,0 -0.5114685,0 0,-0.414046 z"
       id="path4175"
       inkscape:connector-curvature="0"
       transform="translate(0,1017.6378)" />
    <path
       style="fill:#154000;fill-opacity:0"
       d="m 30.118029,34.288419 0,-0.414046 0.535824,0 0.535824,0 0,0.414046 0,0.414046 -0.535824,0 -0.535824,0 0,-0.414046 z"
       id="path4177"
       inkscape:connector-curvature="0"
       transform="translate(0,1017.6378)" />
    <path
       style="fill:#154000;fill-opacity:0"
       d="m 49.617158,34.11793 0,-0.584536 0.511469,0 0.511468,0 0,0.584536 0,0.584535 -0.511468,0 -0.511469,0 0,-0.584535 z"
       id="path4184"
       inkscape:connector-curvature="0"
       transform="translate(0,1017.6378)" />
    <path
       style="fill:#808080;fill-opacity:0"
       d="m 30.12379,34.130108 0.01372,-0.572358 0.511468,0 0.511469,0 0.01372,0.572358 0.01372,0.572357 -0.538916,0 -0.538916,0 0.01372,-0.572357 z"
       id="path4186"
       inkscape:connector-curvature="0"
       transform="translate(0,1017.6378)" />
    <path
       style="fill:#ff5555;fill-opacity:0"
       d="m 4.198752,34.11793 0,-0.584536 0.5114686,0 0.5114685,0 0,0.584536 0,0.584535 -0.5114685,0 -0.5114686,0 0,-0.584535 z"
       id="path4188"
       inkscape:connector-curvature="0"
       transform="translate(0,1017.6378)" />
    <g
       id="g3376">
      <rect
         style="fill:#cccccc"
         x="30.118111"
         y="1051.1787"
         width="1.0629921"
         height="1.1834645"
         id="rect6947-4" />
      <rect
         style="fill:#cccccc"
         x="49.6063"
         y="1051.1787"
         width="1.0629921"
         height="1.1834645"
         id="rect6947-4-7" />
      <rect
         style="fill:#cccccc"
         x="69.09449"
         y="1051.1787"
         width="1.0629921"
         height="1.1834645"
         id="rect6947-4-7-4" />
      <rect
         style="fill:#cccccc;fill-opacity:1"
         x="4.1811023"
         y="1051.1787"
         width="1.0629921"
         height="1.1834645"
         id="rect6947" />
    </g>
    <rect
       id="rect6947-4-6"
       height="0.60000002"
       width="1.0629921"
       y="1024.8685"
       x="30.118008"
       style="fill:#cccccc" />
    <rect
       id="rect6947-4-7-9"
       height="0.60000002"
       width="1.0629921"
       y="1024.8685"
       x="49.606197"
       style="fill:#cccccc" />
    <rect
       id="rect6947-4-7-4-5"
       height="0.60000002"
       width="1.0629921"
       y="1024.8685"
       x="69.094391"
       style="fill:#cccccc" />
    <rect
       id="rect6947-0"
       height="0.60000002"
       width="1.0629921"
       y="1024.8685"
       x="4.1810002"
       style="fill:#cccccc;fill-opacity:1" />
  </g>
</svg>
